<svg xmlns="http://www.w3.org/2000/svg"  viewBox="0 0 50 50" width="25px" height="25px"><path d="M 21.800781 10.099609 C 20.916781 10.099609 20.199219 10.815219 20.199219 11.699219 L 20.199219 12.099609 L 9.8007812 12.099609 C 9.5247813 12.099609 9.3007812 12.323609 9.3007812 12.599609 C 9.3007812 12.875609 9.5247813 13.099609 9.8007812 13.099609 L 11.740234 13.099609 L 13.857422 38.507812 C 14.017422 40.410812 15.636922 41.900391 17.544922 41.900391 L 32.455078 41.900391 C 34.363078 41.900391 35.982625 40.410812 36.140625 38.507812 L 38.257812 13.099609 L 40.199219 13.099609 C 40.476219 13.099609 40.699219 12.875609 40.699219 12.599609 C 40.699219 12.323609 40.475219 12.099609 40.199219 12.099609 L 29.800781 12.099609 L 29.800781 11.699219 C 29.800781 10.815219 29.083219 10.099609 28.199219 10.099609 L 21.800781 10.099609 z M 12.742188 13.099609 L 37.255859 13.099609 L 35.144531 38.423828 C 35.028531 39.812828 33.848078 40.900391 32.455078 40.900391 L 17.542969 40.900391 C 16.150969 40.900391 14.969516 39.811828 14.853516 38.423828 L 12.742188 13.099609 z"/></svg>